<?xml version="1.0" encoding="UTF-8" standalone="no"?>
<svg xmlns="http://www.w3.org/2000/svg" viewBox="0 0 36 36">
<style>
	g path { stroke: none; }
	g.root { display: none; }
	g.root:target { display: inline; }
	g line { stroke: black; }
	g circle { stroke: black; }
	g polyline { stroke: black; }
</style>
<g class="root" id="angies_certified" data-name="angies-certified">
	<path d="M26.028 0H22.136H18.148L15.452 16.804C15.394 16.812 15.338 16.816 15.278 16.824C9.324 17.616 4.702 22.628 4.754 28.234C4.778 30.578 5.576 32.408 7.01 33.908C8.306 35.264 10.07 36 11.852 36C12.55 36 13.248 35.888 13.922 35.656C17.132 34.55 18.198 31.858 18.698 29.392C18.698 29.394 18.696 29.398 18.696 29.402C18.84 26.65 17.37 23.932 14.566 22.322L13.68 27.924C13.394 29.514 13.024 30.464 12.23 30.736C11.756 30.9 11.17 30.732 10.776 30.316C10.266 29.784 9.968 29.188 9.958 28.184C9.932 25.382 12.136 23.182 14.566 22.322C15.33 22.046 16.124 21.918 17.012 21.918C17.912 21.918 18.86 22.09 19.726 22.38C23.01 23.156 25 26.64 25.492 30.412L25.782 32.526H31.246L26.028 0ZM20.422 17.166L21.99 5.14H22.038H22.184L23.932 18.56C22.822 17.954 21.64 17.48 20.422 17.166L20.422 17.166Z" />
	<path d="M19.154 32.802C19.518 31.25 20.36 25.292 20.51 23.538C19.37 23.156 18.116 22.926 16.928 22.926C15.758 22.926 14.71 23.098 13.702 23.46C17.404 25.584 19.344 29.17 19.154 32.802L19.154 32.802Z" />
</g>
<g class="root" id="bbb" data-name="BBB">
	<path d="M22.267 35.999v-8.044h1.761l2.895 0.027c1.437-0.04 2.526 2.522 0.675 3.91a2.067 2.067 0 0 1-0.4 4.049l-3.149 0.047v0.013Zm1.788-3.334v1.872l2.535 0.013c0.972 0.04 1.037-1.923 0.036-1.937Zm0-1.512h2.184c1.138 0.047 0.787-1.761 0.027-1.761l-2.209-0.047Zm-9.448 4.846v-8.044h1.77l2.9 0.027c1.424-0.04 2.522 2.522 0.675 3.91a2.067 2.067 0 0 1-0.4 4.049l-3.149 0.047v0.013Zm1.8-3.334v1.872l2.535 0.013c0.976 0.04 1.037-1.923 0.027-1.937Zm0-1.512h2.184c1.138 0.047 0.787-1.761 0.027-1.761l-2.209-0.047ZM6.898 35.999v-8.044h1.761l2.909 0.027c1.424-0.04 2.522 2.522 0.675 3.91a2.067 2.067 0 0 1-0.4 4.049l-3.149 0.047v0.013Zm1.8-3.334v1.872l2.535 0.013c0.976 0.04 1.037-1.923 0.027-1.937Zm0-1.512h2.189c1.125 0.047 0.787-1.761 0.022-1.761l-2.209-0.047Zm5.496-6.906h-3.023v-0.013l-0.576-0.013l0.589-1.683l0.013 0.047h13.511v-0.047l0.603 1.683l-0.589 0.013v0.013h-3.046l-0.778 2.25l-5.869 0.022Zm3.836-2.508c0.171-1.361-1.424-2.277-2.664-3.023-5.37-2.873-1.35-5.361-0.549-7.523 0.027-0.11 0.326-0.083 0.25 0.175 0.299 1.876 2.969 2.461 4.094 3.559 2.175 1.95 0.839 4.846-0.922 6.872a0.243 0.243 0 0 1-0.157 0.088C18.018 21.891 17.988 21.837 18.022 21.741Zm3.107-4.873c1.613-3.287-1.534-4.121-3.41-5.518-6.805-4.96-1.282-8.071 0.263-11.279a0.173 0.173 0 0 1 0.189-0.061a0.263 0.263 0 0 1 0.286 0.387a1.8 1.8 0 0 0-0.211 1.273c0.724 1.831 4.393 3.107 6.182 5.044 3.149 3.422-0.589 7.619-2.886 10.29a0.373 0.373 0 0 1-0.286 0.101a0.164 0.164 0 0 1-0.045 0C21.102 17.102 21.041 17.021 21.129 16.877Z" />
</g>
<g class="root" id="facebook" data-name="facebook">
	<path d="M20.762 0C14.563 0 13.152 4.601 13.152 7.544L13.152 11.658L9.562 11.658L9.562 18.016L13.144 18.016C13.144 26.175 13.144 36 13.144 36L20.684 36C20.684 36 20.684 26.076 20.684 18.016L25.77 18.016L26.438 11.658L20.692 11.658L20.692 7.924C20.692 6.517 21.628 6.191 22.287 6.191L26.345 6.191L26.345 0.024L20.762 0Z" />
</g>
<g class="root" id="google_plus" data-name="google plus">
	<path d="M33.916 4.998A2.66 2.66 0 0 0 31.312 3H4.688A2.66 2.66 0 0 0 2.084 4.998L0 14.009v0.078a4.8 4.8 0 0 0 2.407 4.118V30.465A2.601 2.601 0 0 0 5.062 33h25.965a2.601 2.601 0 0 0 2.655-2.535V18.15A4.79 4.79 0 0 0 36 14.088V14.009ZM8.622 14.043v0.045a3.482 3.482 0 0 1-3.555 3.396a3.486 3.486 0 0 1-3.555-3.321l2.046-8.85A1.152 1.152 0 0 1 4.688 4.443H9.862Zm8.622 0.045a3.482 3.482 0 0 1-3.555 3.396A3.484 3.484 0 0 1 10.134 14.13L11.386 4.443H17.25Zm1.512 0V4.443h5.859l1.252 9.686a3.56 3.56 0 0 1-7.11-0.042m6.772 15.554a4.05 4.05 0 1 1 2.841-7.039l-1.15 1.059a2.445 2.445 0 0 0-1.689-0.624a2.558 2.558 0 1 0 0 5.114a2.263 2.263 0 0 0 2.4-1.748h-2.4v-1.389h4.004a3.564 3.564 0 0 1 0.066 0.67a3.822 3.822 0 0 1-4.069 3.957m5.4-12.159a3.482 3.482 0 0 1-3.555-3.396v-0.045l-1.24-9.6h5.176a1.152 1.152 0 0 1 1.128 0.865l2.046 8.85a3.486 3.486 0 0 1-3.555 3.321" />
</g>
<g class="root" id="houzz" data-name="Houzz">
	<path d="M18 0.105L6.824 6.001v11.999L18 11.999v-11.999M6.824 18v11.999L18 24.001L6.824 18h0M18 24.001v11.999l11.176-6.001V18L18 24.001m0-11.999l11.176 6.001V6.001L18 11.999m0 2.668v6.718L24.718 18Z" />
</g>
<g class="root" id="linkedin" data-name="LinkedIn">
	<path d="M4.286 1.688C1.695 1.688 0 3.347 0 5.536C0 7.684 1.647 9.378 4.187 9.378L4.238 9.378C6.875 9.378 8.517 7.677 8.517 5.529C8.467 3.342 6.875 1.688 4.286 1.688ZM27.096 11.936C23.076 11.936 20.557 14.106 20.091 15.627L20.091 12.149L12.208 12.149C12.311 13.996 12.208 34.312 12.208 34.312L20.091 34.312L20.091 22.319C20.091 21.653 20.06 20.986 20.262 20.508C20.805 19.176 21.969 17.792 24.063 17.792C26.799 17.792 28.044 19.842 28.044 22.843L28.044 34.312L36 34.312L36 21.989C36 15.125 32.082 11.936 27.096 11.936ZM0.908 12.15L0.908 34.312L7.924 34.312L7.924 12.15L0.908 12.15Z" />
</g>
<g class="root" id="nextdoor" data-name="Nextdoor">
	<path d="M35.957 23.375c0 2.463 0 4.936 0 7.398c0 0.7-0.212 0.914-0.914 0.914c-1.868 0-3.737 0-5.605 0c-0.679 0-0.892-0.222-0.892-0.924c0-4.406 0.01-8.811 0-13.216c-0.01-2.92-2.133-5.605-4.851-6.167c-3.514-0.722-6.719 1.496-7.313 5.063c-0.065 0.414-0.105 0.839-0.105 1.264c-0.01 4.331 0 8.672 0 13.003c0 0.774-0.202 0.977-0.955 0.977c-1.848 0-3.704 0-5.552 0c-0.7 0-0.902-0.202-0.902-0.914c0-4.141 0-8.28 0-12.419c0-0.817-0.16-0.977-0.934-1.209c-1.009-0.307-2.038-0.594-2.982-1.029c-2.728-1.242-4.171-3.482-4.618-6.379c-0.18-1.199-0.245-2.41-0.329-3.631c-0.042-0.615 0.212-0.859 0.849-0.859c1.943 0 3.874 0.01 5.817 0.032c0.7 0.01 0.87 0.212 0.934 0.924c0.085 0.977 0.17 1.963 0.35 2.93c0.075 0.425 0.329 0.859 0.605 1.209c0.669 0.817 1.581 0.712 2.24-0.095c0.807-0.999 1.603-2.028 2.59-2.835c2.982-2.463 6.507-3.332 10.328-3.047c3.132 0.234 5.934 1.326 8.29 3.439c2.568 2.303 3.939 5.201 3.991 8.662C35.989 18.757 35.957 21.06 35.957 23.375z" />
</g>
<g class="root" id="twitter" data-name="twitter">
	<path d="M26.319 24.312c-0.981-1.431-1.969-2.862-2.95-4.294c-0.988-1.438-1.981-2.881-2.969-4.319c-0.075-0.112-0.162-0.219-0.25-0.338c0.25-0.294 0.488-0.594 0.738-0.881c0.812-0.944 1.625-1.881 2.438-2.825c0.431-0.5 0.862-0.994 1.294-1.488c1.062-1.238 2.125-2.475 3.188-3.719c0.856-1 1.712-2 2.569-3c0-0.006 0.006-0.006 0.006-0.012h-2.362c-0.2 0.231-0.394 0.456-0.594 0.688c-1.031 1.194-2.062 2.388-3.094 3.581c-0.731 0.844-1.456 1.694-2.188 2.544c-0.512 0.594-1.019 1.188-1.531 1.788c-0.469 0.544-0.931 1.094-1.394 1.638c-0.031 0.038-0.044 0.088-0.075 0.162c-0.119-0.15-0.194-0.238-0.256-0.331c-0.181-0.256-0.356-0.512-0.531-0.775c-1.075-1.562-2.144-3.125-3.219-4.688c-1.05-1.531-2.106-3.062-3.15-4.594c0-0.006-0.006-0.006-0.006-0.012h-8.312c0.425 0.612 0.85 1.219 1.275 1.838c0.769 1.119 1.531 2.244 2.3 3.362c0.912 1.325 1.825 2.644 2.731 3.962c1.025 1.494 2.05 2.994 3.075 4.488c0.444 0.644 0.881 1.294 1.325 1.938c0.081 0.119 0.062 0.206-0.025 0.306c-0.169 0.181-0.338 0.362-0.494 0.55c-0.662 0.769-1.312 1.544-1.975 2.312c-0.956 1.112-1.919 2.225-2.881 3.338c-0.706 0.819-1.406 1.638-2.106 2.456c-1.094 1.269-2.181 2.544-3.275 3.812h2.35c0.881-1.025 1.769-2.05 2.65-3.075c0.912-1.05 1.825-2.106 2.731-3.156c0.75-0.869 1.494-1.738 2.238-2.606c0.438-0.512 0.881-1.019 1.325-1.525c0.169-0.194 0.331-0.394 0.506-0.581c0.112-0.119 0.162-0.1 0.256 0.031c0.575 0.844 1.15 1.681 1.725 2.519c1.1 1.606 2.194 3.212 3.294 4.812c0.731 1.062 1.462 2.119 2.194 3.175c0.094 0.138 0.188 0.269 0.288 0.406H31.438c-0.781-1.144-1.55-2.288-2.331-3.425C28.175 27.019 27.244 25.669 26.319 24.312zM28.156 30.188c-0.062 0-0.125 0-0.188 0c-1.131 0-2.256-0.006-3.388 0c-0.162 0-0.256-0.025-0.356-0.188c-0.306-0.488-0.65-0.944-0.981-1.419c-0.581-0.838-1.162-1.675-1.75-2.506c-0.788-1.125-1.575-2.244-2.362-3.362c-0.819-1.169-1.631-2.331-2.45-3.5c-0.656-0.944-1.306-1.894-1.969-2.838c-0.95-1.362-1.912-2.719-2.862-4.075c-0.575-0.819-1.144-1.644-1.719-2.469c-0.938-1.338-1.869-2.675-2.806-4.012c-0.138-0.2-0.275-0.394-0.412-0.594c-0.031-0.044-0.056-0.1-0.1-0.188c0.144 0 0.238 0 0.338 0c1.138 0 2.281-0.006 3.419-0.012c0.1 0 0.138 0.031 0.188 0.112c0.3 0.438 0.606 0.869 0.912 1.306c0.569 0.819 1.144 1.638 1.712 2.45c0.781 1.112 1.562 2.225 2.338 3.338c0.706 1.012 1.406 2.025 2.112 3.038c0.919 1.319 1.844 2.631 2.762 3.944c0.881 1.256 1.75 2.519 2.631 3.775c1.025 1.462 2.05 2.925 3.075 4.388c0.562 0.8 1.125 1.606 1.688 2.412c0.075 0.112 0.138 0.238 0.206 0.356C28.181 30.156 28.169 30.169 28.156 30.188z" />
</g>
<g class="root" id="yelp" data-name="Yelp">
	<path d="M4.349 24.665a1.628 1.628 0 0 0 1.372 0.888H5.813A45.635 45.635-0.067 0 0 11.733 23.789l2.412-0.752a1.78 1.78 0 0 0 1.312-1.688A1.852 1.852-0.067 0 0 14.297 19.417l-1.702-0.68h0C6.445 16.406 6.413 16.406 6.065 16.33a1.628 1.628 0 0 0-1.508 0.784a12.496 12.496 0 0 0-0.68 5.938A4.7 4.7-0.067 0 0 4.349 24.665Zm12.884-0.074a1.944 1.944 0 0 0-2.2 0.496l-1.086 1.266l-0.104 0.12C9.549 31.353 9.533 31.477 9.413 31.733a1.404 1.404 0 0 0-0.092 0.664a1.66 1.66 0 0 0 0.408 0.904A13.788 13.788-0.067 0 0 16.647 35.999l0.376 0a1.614 1.614 0 0 0 1.296-1.008c0.12-0.316 0.12-0.348 0.136-6.116 0 0 0-2.398 0-2.472A1.764 1.764-0.067 0 0 17.235 24.573ZM17.625 1.2v0a1.628 1.628 0 0 0-1.252-1.132C14.685-0.364 8.523 1.338 7.331 2.512a1.596 1.596 0 0 0-0.454 1.596c0.18 0.362 6.888 10.656 7.656 11.816s1.404 1.614 2.168 1.614a1.748 1.748 0 0 0 0.512-0.074c0.964-0.284 1.404-1.206 1.324-2.728C18.454 12.352 17.717 1.728 17.625 1.2Zm4.204 19.275a2.05 2.05 0 0 1-1.206-0.858a1.72 1.72 0 0 1 0-2.108l1.508-1.99c3.436-4.52 3.512-4.688 3.816-4.868a1.642 1.642 0 0 1 1.642 0a12.66 12.66 0 0 1 4.324 6.208v0.092a1.508 1.508 0 0 1-0.68 1.508c-0.302 0.18-0.362 0.224-6.768 1.732A9.224 9.224-0.067 0 1 21.828 20.459ZM31.582 25.717c-0.272-0.196-0.302-0.212-5.938-2.018l-2.398-0.784a1.852 1.852 0 0 0-2.064 0.62A1.824 1.824-0.067 0 0 21.032 25.733l0.964 1.508c3.36 5.304 3.498 5.516 3.784 5.728a1.508 1.508 0 0 0 0.936 0.316a1.9 1.9 0 0 0 0.692-0.136a12.646 12.646 0 0 0 4.792-5.938A1.508 1.508-0.067 0 0 31.582 25.717Z" />
</g>
<g class="root" id="youtube" data-name="youtube">
	<path d="M32.628 30.375q-7.805 1.124-14.626 1.124-3.024 0-6.681-0.28t-5.801-0.562l-2.144-0.28q-0.948-0.176-1.67-1.318t-1.056-2.76-0.492-3.024-0.158-2.566v-5.415q0-8.965 3.376-9.669 7.805-1.124 14.626-1.124 3.024 0 6.681 0.28t5.801 0.562l2.144 0.28q1.02 0.14 1.74 1.284t1.036 2.796 0.456 3.024 0.14 2.566v5.415q0 1.266-0.104 2.566t-0.422 2.988-1.056 2.812-1.792 1.3zM24.365 17.12l-9.213-5.625q-0.388-0.352-1.02-0.192t-0.632 0.51v12.377q0 0.388 0.632 0.528t1.02-0.212l9.213-5.625q0.388-0.352 0.388-0.88t-0.388-0.88z" />
</g>
</svg>