<?xml version="1.0" encoding="UTF-8" standalone="no"?>
<svg xmlns="http://www.w3.org/2000/svg" viewBox="0 0 24 24">
<style>
	g path { stroke: none; }
	g.root { display: none; }
	g.root:target { display: inline; }
	g line { stroke: black; }
	g circle { stroke: black; }
	g polyline { stroke: black; }
</style>
<g class="root" id="arrow_down" data-name="arrow down">
	<path d="M13.006 18.316l10.823-10.823a1.217 1.217 0 0 0-1.668-1.668l-10.006 10.006l-10.006-10.006A1.234 1.234 5.402 0 0 0.399 5.642a1.201 1.201 0 0 0-0.117 1.668A0.384 0.384 5.402 0 0 0.399 7.476L11.289 18.316a1.234 1.234 0 0 0 1.668 0Z" />
</g>
<g class="root" id="arrow_left" data-name="arrow-left">
	<path d="M12.001 0A11.999 11.999 0 1 1 3.516 3.515A11.999 11.999 0 0 1 12.001 0ZM6.001 12.023a0.96 0.96 0 0 0 0.283 0.696l3.95 3.938a0.967 0.967 0 0 0 1.368-1.366L9.289 12.976H17.04a0.96 0.96 0 0 0 0-1.92H9.267l2.335-2.335a0.967 0.967 0 1 0-1.368-1.368L6.284 11.291A0.96 0.96 0 0 0 6.001 11.975Z" />
</g>
<g class="root" id="arrow_right" data-name="arrow-right">
	<path d="M11.999 0A11.999 11.999 0 1 0 20.484 3.515A11.999 11.999 0 0 0 11.999 0ZM17.999 12.023a0.96 0.96 0 0 1-0.283 0.696l-3.95 3.938a0.967 0.967 0 0 1-1.368-1.366l2.313-2.316H6.96a0.96 0.96 0 0 1 0-1.92H14.733l-2.335-2.335a0.967 0.967 0 0 1 1.368-1.368l3.95 3.938A0.96 0.96 0 0 1 17.999 11.975Z" />
</g>
<g class="root" id="blog_menu" data-name="blog menu">
	<path d="M16.285 0.001a3.434 3.434 0 0 0-3.304 2.571H0V4.286H12.981a3.409 3.409 0 0 0 6.609 0H24V2.572H19.59A3.434 3.434-1.715 0 0 16.285 0.001Zm0 1.714a1.714 1.714 0 1 1-1.714 1.714A1.702 1.702-1.715 0 1 16.285 1.715ZM7.714 8.572a3.434 3.434 0 0 0-3.304 2.571H0v1.714H4.41a3.409 3.409 0 0 0 6.609 0H24V11.143H11.018A3.434 3.434-1.715 0 0 7.714 8.572Zm0 1.714a1.714 1.714 0 1 1-1.714 1.714A1.702 1.702-1.715 0 1 7.714 10.286Zm8.571 6.857a3.434 3.434 0 0 0-3.304 2.571H0v1.714H12.981a3.409 3.409 0 0 0 6.609 0H24V19.715H19.59A3.434 3.434-1.715 0 0 16.285 17.143Zm0 1.714a1.714 1.714 0 1 1-1.714 1.714A1.702 1.702-1.715 0 1 16.285 18.858Z" />
</g>
<g class="root" id="clear_communication" data-name="clear_communication">
	<path d="M19.344 22.732a0.81 0.81 0 0 1 0.563 0.227c0.987 0.953 2.428 1.271 3.708 0.874-0.824-1.717-0.938-3.683-0.3-5.504 0.792-2.266 0.991-4.536 0.089-6.814-0.792-2.001-2.321-3.663-4.257-4.611a10.487 10.487 0 0 1 0.179 1.935c0 2.774-1.067 5.383-3.003 7.346-1.937 1.964-4.533 3.068-7.311 3.109a10.506 10.506 0 0 1-1.538-0.089c1.527 2.676 4.406 4.419 7.569 4.465 1.384 0.021 2.713-0.269 3.95-0.86a0.809 0.809 0 0 1 0.349-0.079z" />
	<path d="M9.036 0.002C4.108-0.096 0.012 3.891 0 8.817c-0.003 1.204 0.232 2.371 0.698 3.469 0.007 0.016 0.013 0.032 0.019 0.049 0.639 1.821 0.524 3.788-0.3 5.504 1.28 0.397 2.721 0.08 3.708-0.874a0.811 0.811 0 0 1 0.912-0.148c1.237 0.591 2.566 0.882 3.95 0.86 4.889-0.073 8.719-3.954 8.718-8.837C17.707 4.062 13.817 0.098 9.036 0.002zm-4.905 10.157c-0.708 0-1.282-0.573-1.282-1.28s0.574-1.28 1.282-1.28 1.282 0.573 1.282 1.28c0 0.707-0.574 1.28-1.282 1.28zm4.723 0c-0.708 0-1.282-0.573-1.282-1.28s0.574-1.28 1.282-1.28 1.282 0.573 1.282 1.28-0.574 1.28-1.282 1.28zm4.723 0c-0.708 0-1.282-0.573-1.282-1.28s0.574-1.28 1.282-1.28 1.282 0.573 1.282 1.28-0.574 1.28-1.282 1.28z" />
</g>
<g class="root" id="client_obsessed" data-name="client_obsessed">
	<path d="M12.151 3.31l0.773 2.036a0.158 0.158 0 0 0 0.143 0.104l2.175 0.106a0.159 0.159 0 0 1 0.145 0.111a0.159 0.159 0 0 1-0.052 0.175l-1.697 1.364a0.158 0.158 0 0 0-0.054 0.168l0.571 2.101c0.018 0.066-0.005 0.133-0.061 0.173s-0.126 0.041-0.183 0.005l-1.822-1.193a0.158 0.158 0 0 0-0.176 0l-1.822 1.193a0.159 0.159 0 0 1-0.183-0.005a0.159 0.159 0 0 1-0.061-0.173l0.571-2.101a0.158 0.158 0 0 0-0.054-0.168l-1.697-1.364a0.158 0.158 0 0 1-0.052-0.175a0.159 0.159 0 0 1 0.145-0.111l2.175-0.106a0.158 0.158 0 0 0 0.143-0.104l0.773-2.036c0.025-0.064 0.082-0.104 0.15-0.104s0.127 0.04 0.15 0.104zM7.94 2.669l1.361 1.225a0.383 0.383 0 0 0 0.512-0.569l-1.361-1.225a0.383 0.383 0 0 0-0.512 0.569zm7.611-0.569l-1.368 1.232a0.383 0.383 0 0 0 0.512 0.569l1.368-1.232a0.383 0.383 0 0 0-0.512-0.569zm-3.166-0.319a0.384 0.384 0 0 1-0.767 0V0.374a0.384 0.384 0 0 1 0.767 0zm-0.384 9.101c1.486 0 2.691 1.205 2.691 2.691 0 1.486-1.205 2.691-2.691 2.691s-2.691-1.205-2.691-2.691 1.205-2.691 2.691-2.691zm5.291 10.611c-0.285-2.67-2.546-4.75-5.291-4.75-2.746 0-5.006 2.079-5.291 4.75v1.075c0 0.783 0.639 1.422 1.422 1.422h7.738c0.783 0 1.422-0.639 1.422-1.422zm2.751-8.656c1.111 0 2.013 0.901 2.013 2.013 0 1.111-0.901 2.013-2.013 2.013s-2.013-0.901-2.013-2.013c0-1.111 0.901-2.013 2.013-2.013zm-16.083 0c1.111 0 2.013 0.901 2.013 2.013 0 1.111-0.901 2.013-2.013 2.013s-2.013-0.901-2.013-2.013c0-1.111 0.901-2.013 2.013-2.013zm0 4.564c1.174 0 2.227 0.508 2.956 1.315-0.514 0.779-0.855 1.684-0.965 2.667H1.025c-0.298 0-0.555-0.13-0.733-0.37s-0.226-0.524-0.137-0.809c0.502-1.623 2.016-2.802 3.804-2.802zm16.083 0c1.789 0 3.301 1.179 3.804 2.802 0.088 0.285 0.041 0.569-0.137 0.809s-0.434 0.37-0.733 0.37H18.051c-0.11-0.982-0.451-1.888-0.965-2.667 0.729-0.807 1.783-1.315 2.956-1.315zM3.657 3.31l0.773 2.036a0.158 0.158 0 0 0 0.143 0.104l2.175 0.106a0.159 0.159 0 0 1 0.145 0.111a0.159 0.159 0 0 1-0.052 0.175l-1.697 1.364a0.158 0.158 0 0 0-0.054 0.168l0.571 2.101c0.018 0.066-0.005 0.133-0.061 0.173s-0.126 0.041-0.183 0.005l-1.822-1.193a0.158 0.158 0 0 0-0.176 0l-1.822 1.193a0.159 0.159 0 0 1-0.183-0.005a0.159 0.159 0 0 1-0.061-0.173l0.571-2.101a0.158 0.158 0 0 0-0.054-0.168L0.172 5.842a0.158 0.158 0 0 1-0.052-0.175a0.159 0.159 0 0 1 0.145-0.111l2.175-0.106a0.158 0.158 0 0 0 0.143-0.104L3.356 3.31c0.025-0.064 0.082-0.104 0.15-0.104s0.127 0.04 0.15 0.104zm16.964 0l0.773 2.036a0.158 0.158 0 0 0 0.143 0.104l2.175 0.106a0.159 0.159 0 0 1 0.145 0.111a0.159 0.159 0 0 1-0.052 0.175l-1.697 1.364a0.158 0.158 0 0 0-0.054 0.168l0.571 2.101a0.159 0.159 0 0 1-0.061 0.173a0.159 0.159 0 0 1-0.183 0.005l-1.822-1.193a0.158 0.158 0 0 0-0.176 0l-1.822 1.193c-0.057 0.038-0.127 0.035-0.183-0.005s-0.078-0.107-0.061-0.173l0.571-2.101a0.158 0.158 0 0 0-0.054-0.168l-1.697-1.364a0.158 0.158 0 0 1-0.052-0.175a0.159 0.159 0 0 1 0.145-0.111l2.175-0.106a0.158 0.158 0 0 0 0.143-0.104l0.773-2.036c0.025-0.064 0.082-0.104 0.15-0.104s0.127 0.04 0.15 0.104z" />
</g>
<g class="root" id="close" data-name="close">
	<path d="M1.285 0.002A1.498 1.498 0.012 0 0 0.012 1.5a1.498 1.498 0 0 0 0.434 0.884L10.019 11.986L0.447 21.604a1.408 1.408 0 0 0 0 1.992a1.393 1.393 0 0 0 1.962 0L11.996 14.009l9.572 9.587a1.498 1.498 0 0 0 2.007 0a1.408 1.408 0 0 0 0-1.992L14.034 11.986l9.587-9.587A1.423 1.423 0.012 0 0 21.614 0.437L11.996 10.009L2.454 0.437A1.588 1.588 0.012 0 0 1.285 0.002Z" />
</g>
<g class="root" id="extreme_ownership" data-name="extreme_ownership">
	<path d="M6.13 6.901c0.238-0.34 0.238-0.771 0-1.111-0.564-0.809-0.137-2.123 0.795-2.445 0.392-0.136 0.645-0.485 0.653-0.899 0.019-0.986 1.137-1.798 2.08-1.511 0.397 0.121 0.807-0.012 1.057-0.344 0.594-0.787 1.976-0.787 2.571 0 0.25 0.331 0.66 0.464 1.057 0.344 0.943-0.287 2.061 0.525 2.08 1.511 0.008 0.414 0.261 0.763 0.654 0.899 0.932 0.323 1.359 1.637 0.795 2.445-0.238 0.34-0.238 0.771 0 1.111 0.564 0.809 0.137 2.123-0.795 2.445-0.392 0.136-0.645 0.485-0.653 0.899-0.005 0.267-0.091 0.522-0.232 0.745-0.675-0.16-1.4-0.506-2.181-1.126 1.221-0.698 2.043-2.012 2.043-3.519 0-2.237-1.814-4.051-4.051-4.051s-4.051 1.814-4.051 4.051c0 1.699 1.046 3.154 2.529 3.755l-0.393 0.328h-2.491a1.332 1.332 0 0 1-0.016-0.183c-0.008-0.414-0.261-0.763-0.654-0.899-0.932-0.323-1.359-1.637-0.795-2.445zM23.252 18.452l-1.611-8.088c-0.044-0.223-0.263-0.368-0.485-0.324l-2.074 0.413c-0.223 0.044-0.368 0.263-0.324 0.485l1.611 8.088c0.044 0.223 0.263 0.368 0.485 0.324l2.074-0.413c0.223-0.044 0.368-0.263 0.324-0.485zM16.589 11.848c-0.987-0.111-2.051-0.538-3.207-1.49-0.301-0.248-0.651-0.384-0.996-0.393-0.325-0.009-0.65 0.097-0.928 0.33L8.548 12.725c-0.231 0.193-0.378 0.45-0.312 0.757l0.794 3.637c1.464-0.531 1.571-1.741 1.686-3.049 0.022-0.233 0.019-0.466 0.145-0.673 0.136-0.224 0.358-0.35 0.647-0.371 0.214-0.016 0.471 0.032 0.759 0.146 0.463 0.185 1.237 0.724 1.578 1.07L18.927 19.4l0.602-0.602l-1.398-7.017c-0.489 0.094-1.002 0.128-1.542 0.067zM12.69 5.319L12 3.677l-0.69 1.642l-1.775 0.149l1.349 1.164l-0.407 1.735l1.524-0.923l1.524 0.923l-0.407-1.735l1.349-1.164zm0.601 9.469c-0.503-0.458-0.954-0.751-1.311-0.894-0.175-0.069-0.316-0.108-0.418-0.092-0.058 0.009-0.058 0.208-0.07 0.335-0.15 1.697-0.287 3.257-2.635 3.846-0.218 0.069-0.45-0.065-0.498-0.289l-0.883-4.048c-0.129-0.589 0.121-1.141 0.573-1.518l1.103-0.921H5.982l-1.53 7.681l4.864 4.864c0.33 0.33 0.873 0.33 1.204 0 0.331-0.332 0.332-0.873 0-1.204l-1.467-1.467a0.39 0.39 0 0 1 0-0.551a0.39 0.39 0 0 1 0.551 0l3.156 3.156c0.33 0.33 0.873 0.33 1.204 0 0.329-0.329 0.329-0.875 0-1.204l-2.947-2.947a0.39 0.39 0 0 1 0-0.551a0.39 0.39 0 0 1 0.551 0l3.904 3.904c0.33 0.33 0.873 0.33 1.204 0 0.329-0.329 0.329-0.875 0-1.204L12.981 17.99a0.39 0.39 0 0 1 0-0.551a0.39 0.39 0 0 1 0.551 0l3.695 3.695c0.33 0.33 0.873 0.33 1.204 0 0.249-0.249 0.318-0.633 0.174-0.954zm-8.373-4.336l-2.074-0.413c-0.223-0.044-0.441 0.101-0.485 0.324L0.748 18.452c-0.044 0.223 0.101 0.441 0.324 0.485l2.073 0.413c0.223 0.044 0.441-0.101 0.485-0.324l1.611-8.088c0.044-0.223-0.101-0.441-0.324-0.485z" />
</g>
<g class="root" id="finance" data-name="finance">
	<path d="M19.911 6.759C20.144 6.759 20.371 6.879 20.496 7.094C20.681 7.416 20.57 7.826 20.249 8.011C20.144 8.072 20.028 8.102 19.913 8.102C19.683 8.102 19.457 7.982 19.332 7.766C19.147 7.445 19.256 7.035 19.578 6.851L19.579 6.85C19.683 6.789 19.797 6.759 19.91 6.759L19.911 6.759ZM11.212 8.531L11.211 8.531C10.975 8.584 10.791 8.653 10.659 8.742C10.484 8.862 10.37 8.978 10.316 9.093C10.266 9.203 10.238 9.285 10.238 9.343L10.238 10.214C10.238 10.262 10.274 10.314 10.345 10.371C10.422 10.433 10.509 10.487 10.603 10.535C10.783 10.629 10.984 10.72 11.213 10.805L11.212 8.531ZM11.998 2.19C14.702 2.19 17.152 3.285 18.927 5.055L18.935 5.063C19.198 5.325 19.198 5.75 18.935 6.012C18.804 6.143 18.632 6.208 18.462 6.208C18.29 6.208 18.117 6.143 17.987 6.012L17.985 6.011C16.452 4.48 14.337 3.532 12 3.532C7.322 3.532 3.532 7.324 3.532 12C3.532 12.745 3.63 13.469 3.811 14.158C3.816 14.18 3.82 14.192 3.82 14.192C3.916 14.55 3.703 14.918 3.345 15.013L3.342 15.014C3.284 15.031 3.229 15.037 3.171 15.037C2.874 15.037 2.604 14.839 2.523 14.54C2.522 14.538 2.522 14.533 2.522 14.533C2.307 13.726 2.189 12.876 2.189 12C2.189 6.583 6.581 2.19 11.998 2.19L11.998 2.19ZM12.783 15.424L12.783 15.425C13.02 15.373 13.202 15.302 13.33 15.213C13.507 15.093 13.62 14.978 13.674 14.864C13.73 14.744 13.76 14.657 13.76 14.599L13.76 13.742C13.76 13.695 13.72 13.644 13.646 13.585C13.568 13.525 13.486 13.469 13.395 13.42C13.218 13.327 13.015 13.238 12.787 13.154L12.783 15.424ZM4.082 15.899C4.081 15.899 4.082 15.899 4.082 15.899C4.315 15.899 4.542 16.019 4.666 16.235C4.851 16.555 4.741 16.965 4.421 17.151L4.419 17.151C4.314 17.212 4.198 17.24 4.085 17.24C3.853 17.24 3.628 17.12 3.503 16.905C3.318 16.585 3.428 16.174 3.749 15.988C3.855 15.928 3.969 15.899 4.081 15.899L4.082 15.899ZM11.998 5.252C12.433 5.252 12.784 5.602 12.784 6.036L12.786 6.747C13.349 6.828 13.801 6.973 14.146 7.179C14.545 7.418 14.833 7.669 15.017 7.928C15.17 8.145 15.287 8.35 15.359 8.55C15.43 8.749 15.476 8.918 15.496 9.057C15.514 9.2 15.524 9.292 15.524 9.336L15.524 9.686C15.524 9.929 15.438 10.135 15.267 10.308C15.09 10.483 14.882 10.572 14.639 10.572C14.395 10.572 14.186 10.487 14.017 10.314C13.845 10.139 13.76 9.928 13.76 9.686L13.76 9.357C13.76 9.299 13.735 9.214 13.681 9.099C13.624 8.981 13.51 8.861 13.339 8.742C13.208 8.653 13.024 8.585 12.786 8.532L12.786 11.291C13.308 11.453 13.797 11.637 14.238 11.87C14.591 12.058 14.851 12.275 15.038 12.492C15.226 12.713 15.357 12.927 15.423 13.143C15.491 13.361 15.524 13.561 15.524 13.742L15.524 14.621C15.524 14.663 15.514 14.754 15.496 14.892C15.475 15.034 15.43 15.206 15.359 15.406C15.287 15.607 15.17 15.812 15.017 16.027C14.833 16.288 14.548 16.541 14.152 16.778C13.804 16.986 13.347 17.129 12.783 17.211L12.784 17.964C12.784 18.397 12.433 18.748 12 18.748C11.566 18.748 11.214 18.397 11.214 17.964L11.216 17.212C10.653 17.13 10.199 16.985 9.852 16.778C9.454 16.539 9.165 16.288 8.981 16.027C8.827 15.812 8.713 15.607 8.639 15.406C8.564 15.205 8.519 15.036 8.502 14.899C8.486 14.756 8.475 14.663 8.475 14.621L8.475 14.271C8.475 14.027 8.561 13.822 8.731 13.649C8.905 13.475 9.11 13.384 9.353 13.384C9.596 13.384 9.802 13.471 9.975 13.642C10.15 13.819 10.238 14.027 10.238 14.271L10.238 14.614C10.238 14.67 10.266 14.754 10.316 14.863C10.369 14.977 10.484 15.094 10.659 15.213C10.792 15.303 10.977 15.374 11.214 15.427L11.216 12.668C10.694 12.505 10.205 12.319 9.76 12.084C9.404 11.897 9.138 11.683 8.953 11.465C8.766 11.244 8.64 11.027 8.574 10.814C8.507 10.595 8.475 10.395 8.475 10.214L8.475 9.336C8.475 9.292 8.479 9.202 8.496 9.063C8.512 8.921 8.558 8.748 8.631 8.55C8.705 8.349 8.827 8.145 8.981 7.928C9.165 7.669 9.45 7.416 9.846 7.179C10.195 6.97 10.65 6.827 11.212 6.746L11.214 6.036C11.214 5.603 11.566 5.252 11.998 5.252L11.998 5.252ZM20.823 8.964C21.118 8.964 21.394 9.158 21.477 9.457C21.693 10.268 21.81 11.121 21.81 12C21.81 17.418 17.417 21.81 12 21.81C9.29 21.81 6.837 20.711 5.062 18.938L5.061 18.937C4.799 18.674 4.8 18.25 5.062 17.988L5.062 17.987C5.193 17.856 5.365 17.791 5.537 17.791C5.708 17.791 5.88 17.856 6.012 17.987C6.021 17.999 6.042 18.019 6.042 18.019C7.572 19.533 9.676 20.468 12 20.468C16.676 20.468 20.467 16.677 20.467 12C20.467 11.266 20.37 10.547 20.195 9.87C20.185 9.831 20.177 9.809 20.177 9.809C20.082 9.451 20.293 9.083 20.652 8.987L20.653 8.986C20.71 8.971 20.766 8.964 20.823 8.964L20.823 8.964ZM11.998 0C5.371 0 0 5.372 0 12C0 18.627 5.371 24 12 24C18.626 24 24 18.627 24 12C24 5.373 18.627 0 12 0L11.998 0Z" />
</g>
<g class="root" id="flair" data-name="flair">
	<path d="M22.983 14.997L20.211 12.227L17.272 15.053C16.327 15.103 15.378 15.04 14.434 15.065C14.33 15.067 13.884 15.241 13.949 15.032L14.433 14.65L17.023 14.656L20.137 11.557C20.363 11.557 22.865 14.564 23.377 14.679C23.543 14.716 23.715 14.692 23.882 14.69L24 14.993L24 15.068L22.983 14.997ZM14.474 14.545L17.512 11.556L19.949 11.556L16.987 14.545L14.474 14.545ZM17.401 10.883L13.391 14.997L13.235 15.067L7.853 15.053L4.323 11.71L1.017 14.997L0 15.068L0 14.694L0.791 14.55C1.646 13.682 2.545 12.861 3.416 12.009C3.687 11.744 4.188 11.019 4.556 10.971L12.038 12.459C12.449 12.424 13.3 11.166 13.756 10.951L17.099 10.36L13.129 14.438L12.866 14.549L8.153 14.53C6.985 13.557 5.987 12.222 4.837 11.257C4.753 11.186 4.715 11.075 4.575 11.108L8.136 14.659L12.979 14.661L17.447 10.291L18.599 11.405C17.968 11.528 17.813 11.247 17.401 10.883ZM11.625 11.63L11.624 11.181L12.15 11.183C12.049 11.397 11.906 11.667 11.625 11.63ZM11.625 10.509C11.816 10.431 12.253 10.938 12.15 11.032L11.624 11.033L11.625 10.509ZM11.438 10.509L11.475 11.033L11.025 11.032C11.027 10.775 11.242 10.622 11.438 10.509ZM11.474 11.63L11.025 11.293C10.945 11.096 11.4 11.207 11.475 11.181L11.474 11.63ZM11.662 9.539L9.491 11.709C9.293 11.871 9.066 11.711 8.85 11.704L11.597 8.945L13.569 10.856L13.312 11.179L11.662 9.539ZM7.075 11.342C6.973 11.315 6.867 11.39 6.9 11.22L9.299 8.865L11.474 8.865L8.816 11.559C8.552 11.713 7.434 11.433 7.075 11.342ZM4.35 13.724L3.824 13.724L3.824 13.274L4.35 13.274L4.35 13.724ZM3.824 14.396L3.824 13.872L4.317 13.941C4.463 14.39 4.221 14.437 3.824 14.396ZM4.95 13.274L4.95 13.724L4.499 13.724L4.499 13.274L4.95 13.274ZM4.95 14.396L4.499 14.396L4.499 13.872L4.95 13.872L4.95 14.396ZM20.025 14.097L19.574 14.097L19.574 13.573L20.025 13.573L20.025 14.097ZM20.025 14.695L19.574 14.695L19.574 14.246L20.025 14.246L20.025 14.695ZM20.174 14.097L20.174 13.573L20.667 13.643C20.813 14.091 20.571 14.138 20.174 14.097ZM20.7 14.695L20.174 14.695L20.174 14.245L20.7 14.245L20.7 14.695Z" />
</g>
<g class="root" id="growth_adaptability" data-name="growth_adaptability">
	<path d="M2.165 22.831c0 0.462 0.375 0.837 0.837 0.837h17.859a0.837 0.837 0 0 0 0.837-0.837c0-1.109-0.739-2.195-2.132-3.027-1.723-1.028-4.499-1.718-7.634-1.718s-5.911 0.69-7.635 1.718c-1.392 0.832-2.132 1.918-2.132 3.027z" />
	<path d="M12.76 20.722s0.507-3.385 2.101-6.687c1.021-2.118 2.485-4.22 4.603-5.279a0.837 0.837 0 1 0-0.748-1.497c-2.445 1.222-4.184 3.605-5.363 6.049-1.708 3.54-2.248 7.167-2.248 7.167a0.837 0.837 0 0 0 1.656 0.248z" />
	<path d="M13.307 11.06L14.234 13.116a25.853 25.853 0 0 1 6.602-5.983a1.954 1.954 0 0 1-0.873 2.621c-1.629 0.814-2.801 2.335-3.68 3.95 1.384 0.374 2.521 0.381 3.447 0.144 2.244-0.569 3.407-2.551 3.912-4.79 0.683-3.03 0.175-6.471 0.175-6.471a0.838 0.838 0 0 0-0.927-0.708c-5.56 0.655-8.067 2.529-9.132 4.421-0.965 1.713-0.787 3.518-0.453 4.759zM12.762 20.708s0.384-2.845-0.279-6.212c-0.678-3.436-2.445-7.389-6.707-9.521a0.837 0.837 0 0 0-0.749 1.498c3.723 1.861 5.221 5.345 5.813 8.346 0.605 3.071 0.262 5.667 0.262 5.667a0.837 0.837 0 1 0 1.66 0.221z" />
	<path d="M8.487 11.38C7.666 9.837 6.42 8.419 4.527 7.473a1.955 1.955 0 0 1-0.874-2.621C3.82 4.52 9.769 9.767 10.885 10.883l0.543-2.216c0.242-1.268 0.337-3.334-0.979-5.103-1.295-1.743-4.019-3.284-9.618-3.231a0.837 0.837 0 0 0-0.829 0.819s-0.069 3.476 0.991 6.396c0.784 2.158 2.188 3.977 4.486 4.258 0.854 0.105 1.852-0.006 3.009-0.426z" />
</g>
<g class="root" id="handshake" data-name="handshake">
	<path d="M18.288 12.614C17.43 12 16.361 11.239 15.434 10.709C14.024 9.902 13.756 10.106 13.753 10.106C12.106 11.496 10.744 12.23 9.837 12.23C9.678 12.233 9.521 12.205 9.371 12.151C9.023 12.017 8.781 11.696 8.747 11.324C8.602 10.236 9.713 8.567 11.474 7.194C11.179 6.869 10.708 6.943 9.755 7.18C8.942 7.382 8.031 7.608 7.14 7.3L3.898 12.383C3.946 12.442 3.997 12.496 4.052 12.546L4.085 12.511L4.085 12.509C4.436 12.11 4.98 11.937 5.498 12.06C5.9 12.156 6.25 12.402 6.476 12.749C7.02 12.364 7.717 12.266 8.346 12.485C8.841 12.677 9.187 13.128 9.246 13.655C9.792 13.565 10.347 13.75 10.731 14.148C11.062 14.536 11.146 15.09 10.981 15.734C11.623 15.954 12.01 16.304 12.134 16.782C12.306 17.445 11.751 18.305 11.519 18.624C12.395 19.216 13.095 19.446 13.557 19.288L13.556 19.287C13.859 19.156 14.086 18.897 14.176 18.58L12.554 17.427L12.554 17.427C12.474 17.373 12.419 17.288 12.402 17.193C12.384 17.096 12.407 16.998 12.462 16.919C12.518 16.839 12.605 16.786 12.7 16.772C12.796 16.756 12.894 16.78 12.972 16.839L14.781 18.126C15.236 18.326 15.597 18.362 15.856 18.234L15.854 18.233C16.139 18.049 16.338 17.758 16.405 17.425L13.496 15.527C13.33 15.418 13.283 15.194 13.391 15.028C13.501 14.86 13.723 14.813 13.891 14.922L16.957 16.924C17.261 17.017 17.591 16.98 17.867 16.821C18.061 16.643 18.176 16.398 18.191 16.136L14.335 13.526C14.254 13.474 14.198 13.39 14.179 13.297C14.16 13.201 14.18 13.103 14.233 13.023C14.288 12.943 14.371 12.888 14.467 12.871C14.561 12.852 14.659 12.874 14.738 12.93L18.714 15.618C19.205 15.762 19.736 15.659 20.138 15.342C20.336 15.083 20.421 14.757 20.375 14.436C20.306 14.108 20.03 13.79 19.555 13.488C19.247 13.297 18.803 12.981 18.289 12.614L18.288 12.614ZM13.288 9.555C11.287 11.246 10.067 11.647 9.63 11.478C9.527 11.439 9.46 11.339 9.46 11.23C9.377 10.601 10.157 9.057 12.152 7.584C13.805 6.631 14.222 6.836 14.799 7.118L14.799 7.119C15.208 7.343 15.659 7.474 16.123 7.504C16.369 7.519 16.616 7.513 16.862 7.486L20.236 12.778C20.183 12.848 20.114 12.904 20.034 12.942C20.002 12.921 19.97 12.9 19.937 12.878C19.647 12.698 19.211 12.387 18.706 12.027C16.056 10.137 14.117 8.856 13.286 9.558L13.288 9.555ZM17.167 6.623C17.079 6.484 17.12 6.3 17.258 6.212L19.326 4.891L19.328 4.891C19.394 4.849 19.475 4.834 19.552 4.85C19.629 4.868 19.695 4.915 19.738 4.981L23.954 11.593C23.996 11.66 24.01 11.74 23.993 11.817C23.977 11.894 23.929 11.961 23.863 12.004L21.794 13.325C21.655 13.412 21.472 13.372 21.383 13.234L17.167 6.623ZM11.436 16.964C11.49 17.167 11.321 17.686 10.903 18.244C10.51 18.769 10.101 19.058 9.914 19.064C9.402 19.08 9.106 18.896 8.95 18.458L9.495 17.797L10.655 16.386C11.109 16.524 11.371 16.715 11.436 16.964L11.436 16.964ZM8.938 17.339L8.353 18.049C7.861 18.149 7.483 18.123 7.26 17.968C7.094 17.838 6.986 17.649 6.958 17.441L9.116 14.398C9.614 14.316 9.99 14.391 10.183 14.618C10.386 14.857 10.394 15.284 10.206 15.797C9.673 16.445 9.25 16.959 8.938 17.339L8.938 17.339ZM6.388 16.998C6.072 17.022 5.758 16.926 5.508 16.73C5.314 16.517 5.209 16.237 5.213 15.949C6.193 14.777 6.554 13.942 6.684 13.513L6.684 13.514C7.045 13.14 7.586 13.003 8.082 13.158C8.396 13.29 8.586 13.615 8.548 13.954L6.388 16.998ZM4.654 15.495C4.361 15.583 4.047 15.552 3.777 15.411C3.604 15.25 3.506 15.023 3.511 14.786C3.462 14.23 3.894 13.77 4.352 13.284C4.442 13.188 4.535 13.089 4.623 12.989L4.624 12.989C4.801 12.785 5.076 12.698 5.338 12.763C5.639 12.836 5.88 13.058 5.981 13.351C5.856 13.734 5.527 14.455 4.655 15.495L4.654 15.495ZM2.617 13.053C2.527 13.192 2.344 13.232 2.206 13.143L0.138 11.823C0.071 11.781 0.024 11.714 0.007 11.636C-0.011 11.559 0.004 11.478 0.046 11.412L4.262 4.801L4.262 4.801C4.304 4.735 4.372 4.688 4.449 4.671C4.47 4.667 4.492 4.664 4.514 4.664C4.57 4.664 4.625 4.68 4.672 4.71L6.741 6.031C6.878 6.12 6.919 6.302 6.832 6.441L2.617 13.053Z" />
</g>
<g class="root" id="honesty_transparency" data-name="honesty_transparency">
	<path d="M10.121 19.878l-1.24 3.926A0.282 0.282-1.553 0 1 8.612 24H3.529c-0.09 0-0.174-0.043-0.228-0.115s-0.069-0.166-0.041-0.252l2.004-6.343c0.068 0.158 0.13 0.337 0.192 0.513 0.208 0.596 0.443 1.273 1.038 1.617 0.587 0.34 1.285 0.208 1.901 0.091 0.389-0.073 0.791-0.149 1.048-0.08 0.197 0.052 0.437 0.241 0.679 0.446zm8.616-2.587a8.014 8.014 0 0 0-0.192 0.513c-0.208 0.596-0.443 1.273-1.038 1.617-0.587 0.34-1.285 0.208-1.901 0.091-0.39-0.073-0.791-0.149-1.048-0.081-0.197 0.053-0.437 0.241-0.679 0.447l1.24 3.926A0.282 0.282-1.553 0 0 15.388 24h5.082c0.09 0 0.174-0.043 0.228-0.115s0.069-0.166 0.041-0.252zM17.929 9.882c0 3.27-2.66 5.929-5.929 5.929s-5.929-2.66-5.929-5.929 2.66-5.929 5.929-5.929 5.929 2.66 5.929 5.929zm-2.274-1.172a0.282 0.282 0 0 0-0.225-0.19l-2.192-0.335l-0.983-2.094a0.282 0.282 0 0 0-0.51 0l-0.983 2.094l-2.192 0.335a0.282 0.282 0 0 0-0.159 0.477l1.587 1.626l-0.531 2.302a0.282 0.282 0 0 0 0.404 0.315L12 12.148l2.13 1.091a0.28 0.28 0 0 0 0.303-0.028c0.087-0.068 0.126-0.18 0.102-0.287l-0.531-2.302l1.587-1.626a0.281 0.281 0 0 0 0.066-0.287zm4.801 3.439c-0.136 0.506-0.035 1.036 0.062 1.55 0.08 0.422 0.171 0.901 0.041 1.125-0.134 0.232-0.6 0.394-1.011 0.536-0.488 0.169-0.994 0.346-1.359 0.71-0.366 0.366-0.542 0.872-0.712 1.36-0.143 0.411-0.305 0.876-0.536 1.011-0.028 0.016-0.113 0.066-0.332 0.066-0.233 0-0.517-0.054-0.793-0.106-0.316-0.06-0.673-0.128-1.016-0.128-0.194 0-0.368 0.021-0.532 0.064-0.49 0.131-0.89 0.477-1.276 0.811C12.643 19.452 12.281 19.765 12 19.765c-0.282 0-0.644-0.313-0.994-0.617-0.386-0.334-0.786-0.68-1.274-0.81a2.052 2.052 0 0 0-0.535-0.066c-0.342 0-0.699 0.068-1.014 0.128-0.277 0.052-0.561 0.106-0.794 0.106-0.219 0-0.303-0.05-0.331-0.066-0.232-0.134-0.394-0.6-0.536-1.011-0.169-0.488-0.346-0.994-0.71-1.359-0.366-0.366-0.872-0.542-1.36-0.712-0.411-0.143-0.876-0.305-1.011-0.536-0.129-0.224-0.038-0.702 0.041-1.125 0.097-0.516 0.197-1.046 0.062-1.55-0.131-0.488-0.477-0.888-0.81-1.274C2.43 10.525 2.118 10.164 2.118 9.882c0-0.282 0.313-0.644 0.617-0.994 0.334-0.386 0.68-0.786 0.81-1.274 0.136-0.506 0.035-1.036-0.062-1.55-0.08-0.422-0.171-0.901-0.041-1.125 0.134-0.232 0.6-0.394 1.011-0.536 0.488-0.169 0.994-0.346 1.359-0.71 0.366-0.366 0.542-0.872 0.712-1.36 0.143-0.411 0.305-0.876 0.536-1.011 0.028-0.016 0.113-0.066 0.332-0.066 0.234 0 0.517 0.054 0.793 0.106 0.315 0.06 0.671 0.126 1.016 0.126a2.05 2.05 0 0 0 0.529-0.063c0.492-0.132 0.892-0.477 1.278-0.811C11.357 0.313 11.719 0 12 0c0.282 0 0.644 0.313 0.994 0.617 0.386 0.334 0.786 0.68 1.274 0.81 0.164 0.043 0.339 0.066 0.534 0.066 0.341 0 0.699-0.068 1.014-0.126 0.277-0.052 0.561-0.106 0.794-0.106 0.219 0 0.304 0.05 0.331 0.066 0.232 0.134 0.394 0.6 0.536 1.011 0.169 0.488 0.346 0.994 0.71 1.359 0.366 0.366 0.872 0.542 1.36 0.712 0.411 0.143 0.876 0.305 1.011 0.536 0.129 0.224 0.038 0.702-0.041 1.125-0.097 0.516-0.197 1.046-0.062 1.55 0.131 0.488 0.477 0.888 0.81 1.274C21.569 9.239 21.882 9.601 21.882 9.882c0 0.282-0.313 0.644-0.617 0.994-0.334 0.386-0.68 0.786-0.81 1.274zM19.059 9.882c0-3.892-3.167-7.059-7.059-7.059S4.941 5.991 4.941 9.882s3.167 7.059 7.059 7.059 7.059-3.167 7.059-7.059z" />
</g>
<g class="root" id="insured" data-name="insured">
	<path d="M15.61 22.662L15.643 22.697C16.293 23.398 17.177 23.807 17.886 24C18.613 23.801 19.486 23.376 20.103 22.636C20.572 22.074 20.894 21.323 20.894 20.342L20.894 17.301C19.805 17.405 18.858 17.426 17.814 16.402C16.771 17.418 15.823 17.397 14.735 17.293L14.735 20.334C14.735 21.3 15.074 22.046 15.561 22.607L15.61 22.662L15.61 22.662ZM14.347 1.15L14.347 1.196C14.347 1.5 14.223 1.776 14.023 1.976C13.824 2.176 13.547 2.3 13.243 2.3L8.526 2.3C8.221 2.3 7.945 2.176 7.745 1.976C7.546 1.776 7.421 1.5 7.421 1.196L7.421 1.15L3.85 1.15C3.645 1.15 3.46 1.234 3.325 1.369C3.19 1.502 3.106 1.689 3.106 1.894L3.106 21.846C3.106 22.05 3.19 22.237 3.325 22.372C3.459 22.506 3.645 22.589 3.85 22.589L14.839 22.589C14.434 21.99 14.17 21.246 14.17 20.334L14.172 16.954C14.188 16.799 14.326 16.686 14.48 16.701L14.556 16.708C15.666 16.82 16.594 16.914 17.616 15.796C17.74 15.682 17.919 15.69 18.023 15.805C18.226 16.029 18.426 16.205 18.625 16.341L18.663 1.893C18.663 1.689 18.579 1.503 18.444 1.367C18.309 1.233 18.123 1.148 17.92 1.148L14.347 1.15L14.347 1.15ZM13.243 0L8.526 0C8.377 0 8.242 0.061 8.145 0.158C8.047 0.256 7.986 0.391 7.986 0.539L7.986 1.196C7.986 1.343 8.047 1.479 8.144 1.576C8.242 1.674 8.377 1.735 8.526 1.735L13.243 1.735C13.391 1.735 13.526 1.674 13.624 1.576C13.721 1.479 13.782 1.343 13.782 1.196L13.782 0.539C13.782 0.391 13.721 0.256 13.624 0.158C13.526 0.061 13.391 0 13.243 0L13.243 0ZM4.544 18.81C4.435 18.701 4.435 18.522 4.545 18.412C4.655 18.303 4.834 18.303 4.944 18.414L5.964 19.435L7.857 17.541C7.968 17.431 8.147 17.431 8.257 17.541C8.367 17.65 8.367 17.83 8.257 17.94L6.165 20.033C6.053 20.143 5.874 20.142 5.764 20.032L4.544 18.811L4.544 18.81ZM4.544 12.544C4.435 12.434 4.435 12.255 4.545 12.146C4.655 12.036 4.834 12.037 4.944 12.147L5.965 13.169L7.857 11.275C7.967 11.165 8.145 11.164 8.255 11.274C8.366 11.383 8.366 11.561 8.257 11.672L6.165 13.765C6.053 13.876 5.874 13.875 5.764 13.765L4.543 12.544L4.544 12.544ZM10.093 20.493C9.937 20.493 9.81 20.366 9.81 20.211C9.81 20.055 9.937 19.928 10.093 19.928L12.566 19.928C12.722 19.928 12.848 20.055 12.848 20.211C12.848 20.366 12.722 20.493 12.566 20.493L10.093 20.493ZM10.093 18.796C9.937 18.796 9.81 18.669 9.81 18.513C9.81 18.357 9.937 18.23 10.093 18.23L12.566 18.23C12.722 18.23 12.848 18.357 12.848 18.513C12.848 18.669 12.722 18.796 12.566 18.796L10.093 18.796ZM10.093 17.098C9.937 17.098 9.81 16.971 9.81 16.815C9.81 16.659 9.937 16.532 10.093 16.532L12.566 16.532C12.722 16.532 12.848 16.659 12.848 16.815C12.848 16.971 12.722 17.098 12.566 17.098L10.093 17.098ZM10.093 13.85C9.937 13.85 9.81 13.723 9.81 13.567C9.81 13.412 9.937 13.285 10.093 13.285L12.566 13.285C12.722 13.285 12.848 13.412 12.848 13.567C12.848 13.723 12.722 13.85 12.566 13.85L10.093 13.85ZM10.093 12.152C9.937 12.152 9.81 12.026 9.81 11.87C9.81 11.714 9.937 11.587 10.093 11.587L14.829 11.587C14.985 11.587 15.112 11.714 15.112 11.87C15.112 12.026 14.985 12.152 14.829 12.152L10.093 12.152ZM10.093 10.454C9.937 10.454 9.81 10.328 9.81 10.172C9.81 10.016 9.937 9.889 10.093 9.889L15.961 9.889C16.117 9.889 16.244 10.016 16.244 10.172C16.244 10.328 16.117 10.454 15.961 10.454L10.093 10.454ZM10.093 7.204C9.937 7.204 9.81 7.077 9.81 6.921C9.81 6.765 9.937 6.639 10.093 6.639L15.961 6.639C16.117 6.639 16.244 6.765 16.244 6.921C16.244 7.077 16.117 7.204 15.961 7.204L10.093 7.204ZM10.093 5.506C9.937 5.506 9.81 5.379 9.81 5.223C9.81 5.068 9.937 4.941 10.093 4.941L14.829 4.941C14.985 4.941 15.112 5.068 15.112 5.223C15.112 5.379 14.985 5.506 14.829 5.506L10.093 5.506ZM10.093 3.808C9.937 3.808 9.81 3.681 9.81 3.525C9.81 3.37 9.937 3.243 10.093 3.243L15.961 3.243C16.117 3.243 16.244 3.37 16.244 3.525C16.244 3.681 16.117 3.808 15.961 3.808L10.093 3.808ZM4.544 5.646C4.435 5.536 4.435 5.357 4.545 5.248C4.655 5.139 4.834 5.139 4.944 5.25L5.965 6.27L7.857 4.377C7.967 4.267 8.145 4.267 8.255 4.375C8.366 4.485 8.366 4.664 8.257 4.774L6.165 6.867C6.053 6.978 5.874 6.977 5.764 6.867L4.543 5.646L4.544 5.646ZM15.684 20.177C15.574 20.067 15.574 19.888 15.682 19.778C15.792 19.668 15.971 19.668 16.081 19.776L17.299 20.995L19.606 18.688C19.716 18.578 19.895 18.578 20.006 18.688C20.116 18.798 20.116 18.978 20.006 19.088L17.5 21.594C17.39 21.703 17.211 21.703 17.101 21.594L15.684 20.177L15.684 20.177Z" />
</g>
<g class="root" id="menu" data-name="menu">
	<path d="M0 2.634v2.927H24v-2.927Zm0 7.902v2.927H24V10.537Zm0 7.902v2.927H24v-2.927Z" />
</g>
<g class="root" id="message" data-name="message">
	<path d="M1.663 6.642L1.663 15.933C0.706 15.673 0 14.81 0 13.772L0 4.285C0 3.043 1.008 2.039 2.246 2.039L20.033 2.039C21.071 2.039 21.939 2.745 22.194 3.702L4.602 3.702C2.982 3.702 1.663 5.021 1.663 6.642L1.663 6.642ZM19.714 10.237C19.08 10.237 18.566 10.751 18.566 11.385C18.566 12.019 19.08 12.53 19.714 12.53C20.348 12.53 20.862 12.015 20.862 11.385C20.858 10.751 20.343 10.237 19.714 10.237ZM13.495 10.237C12.862 10.237 12.347 10.751 12.347 11.385C12.347 12.019 12.862 12.53 13.495 12.53C14.129 12.53 14.644 12.015 14.644 11.385C14.64 10.751 14.125 10.237 13.495 10.237ZM7.277 10.237C6.643 10.237 6.128 10.751 6.128 11.385C6.128 12.019 6.643 12.53 7.277 12.53C7.911 12.53 8.425 12.015 8.425 11.385C8.421 10.751 7.911 10.237 7.277 10.237ZM24.635 6.642L24.635 16.124C24.635 17.367 23.627 18.37 22.389 18.37L10.458 18.37L5.878 22.182C5.792 22.25 5.669 22.191 5.669 22.084L5.669 18.37L4.602 18.37C3.36 18.37 2.356 17.362 2.356 16.124L2.356 6.642C2.356 5.4 3.364 4.396 4.602 4.396L22.389 4.396C23.631 4.391 24.635 5.4 24.635 6.642L24.635 6.642ZM9.11 11.381C9.11 10.368 8.285 9.543 7.277 9.543C6.269 9.543 5.444 10.368 5.444 11.381C5.444 12.393 6.269 13.214 7.277 13.214C8.285 13.214 9.11 12.393 9.11 11.381ZM15.329 11.381C15.329 10.368 14.504 9.543 13.496 9.543C12.488 9.543 11.662 10.368 11.662 11.381C11.662 12.393 12.488 13.214 13.496 13.214C14.504 13.214 15.329 12.393 15.329 11.381ZM21.547 11.381C21.547 10.368 20.722 9.543 19.714 9.543C18.706 9.543 17.881 10.368 17.881 11.381C17.881 12.393 18.706 13.214 19.714 13.214C20.722 13.214 21.547 12.393 21.547 11.381Z" />
</g>
<g class="root" id="phone" data-name="phone">
	<path d="M6.407 0.948L8.464 5.07a1.715 1.715 0 0 1-0.322 1.98c-0.56 0.56-1.208 1.208-1.664 1.673a1.709 1.709 0 0 0-0.295 2.01l0.013 0.023a20.558 20.558 0 0 0 3.12 3.952a20.6 20.6 0 0 0 3.926 3.108l0.026 0.016a1.713 1.713 0 0 0 2.014-0.304l1.667-1.667a1.715 1.715 0 0 1 1.98-0.322l4.121 2.06a1.715 1.715 0 0 1 0.948 1.533V22.282A1.712 1.712-7.494 0 1 21.83 23.938a32.41 32.41 0 0 1-13.996-7.764A32.422 32.422-7.494 0 1 0.065 2.173A1.712 1.712-7.494 0 1 1.722 0h3.152a1.715 1.715 0 0 1 1.533 0.948Z" />
</g>
<g class="root" id="play" data-name="play">
	<path d="M22.727 13.882L3.271 23.768a2.24 2.24 0 0 1-3.018-1.052A2.187 2.187 0.011 0 1 0.011 21.77V2.209A2.177 2.177 0.011 0 1 1.062 0.316A2.65 2.65 0.011 0 1 2.219 0A3.155 3.155 0.011 0 1 3.166 0.21L22.727 9.886a2.314 2.314 0 0 1 1.262 1.998A2.398 2.398 0.011 0 1 22.727 13.882Z" />
</g>
<g class="root" id="positive_attitude" data-name="positive_attitude">
	<path d="M18.899 14.288H13.643c0.433-1.302 0.665-2.397 0.702-3.331 0.09-2.203-0.951-3.076-1.84-3.42a0.533 0.533 0 0 0-0.115-0.031c-0.689-0.109-0.934 0.215-1.097 0.581l-0.021 0.048a0.561 0.561 0 0 0-0.046 0.166a9.064 9.064 0 0 1-2.296 5.045v10.502a3.712 3.712 0 0 0 0.434 0.13a0.566 0.566 0 0 0 0.121 0.015c0.44 0.005 0.965 0.007 1.57 0.007 0.604 0 1.287-0.002 2.045-0.007h4.952a1.634 1.634 0 0 0 1.4-2.478a1.632 1.632 0 0 0 0.377-2.201a1.633 1.633 0 0 0 0.235-2.245a1.634 1.634 0 0 0-1.166-2.779zM7.832 4.86a0.563 0.563 0 0 0-0.471-0.385l-1.535-0.177l-0.642-1.405a0.562 0.562 0 0 0-1.023 0l-0.642 1.405l-1.535 0.177a0.563 0.563 0 0 0-0.317 0.973l1.139 1.045l-0.307 1.515a0.563 0.563 0 0 0 0.828 0.601l1.345-0.76l1.346 0.76a0.563 0.563 0 0 0 0.828-0.601l-0.307-1.515l1.139-1.045a0.563 0.563 0 0 0 0.155-0.588zm14.655 0a0.563 0.563 0 0 1-0.155 0.588l-1.139 1.045l0.307 1.515a0.563 0.563 0 0 1-0.828 0.601l-1.345-0.76l-1.346 0.76a0.563 0.563 0 0 1-0.828-0.601l0.307-1.515l-1.139-1.045a0.563 0.563 0 0 1 0.317-0.973l1.535-0.177l0.643-1.405a0.562 0.562 0 0 1 1.023 0l0.643 1.405l1.535 0.177a0.563 0.563 0 0 1 0.471 0.385zM15.786 2.752a0.565 0.565 0 0 0-0.471-0.387l-1.977-0.226L12.511 0.328a0.563 0.563 0 0 0-1.023 0l-0.827 1.811l-1.977 0.226a0.563 0.563 0 0 0-0.317 0.974l1.465 1.346l-0.395 1.95a0.563 0.563 0 0 0 0.828 0.601L11.999 6.258l1.733 0.978a0.563 0.563 0 0 0 0.828-0.601l-0.395-1.95l1.465-1.346a0.561 0.561 0 0 0 0.155-0.587zM7.806 14.39a1.101 1.101 0 0 0-0.931-0.515H2.993a1.102 1.102 0 0 0-1.101 1.101V22.898A1.103 1.103-0.001 0 0 2.993 24h3.883a1.101 1.101 0 0 0 0.931-0.515zm-4.492 1.552a0.563 0.563 0 0 1 0.563-0.563h0.413a0.563 0.563 0 0 1 0 1.125h-0.413a0.563 0.563 0 0 1-0.563-0.563z" />
</g>
<g class="root" id="pride_passion" data-name="pride_passion">
	<path d="M8.088 10.286c1.942 1.977 4.286 3.286 6.323 4.303a1.269 1.269 0 0 0 1.102-0.004C31.333 7.301 21.348-3.495 15.064 1.507c-0.112 0.111-0.105 0.094-0.219-0.013a5.342 5.342 0 0 0-5.741-0.775c-4.224 1.967-3.876 6.929-1.017 9.566zM22.917 15.725a1.13 1.13 0 0 0-0.5 0.09l-5.512 2.335a2.263 2.263 0 0 1-2.227 2.524l-5.229 0.013a0.43 0.43 0 0 1 0-0.861l5.224-0.013a1.387 1.387 0 0 0 0.254-2.748l-7.046-1.33a4.384 4.384 0 0 0-3.412 0.783L0 19.532l1.783 3.876l10.001 0.375a5.728 5.728 0 0 0 3.394-0.969l8.342-5.009a1.15 1.15 0 0 0-0.603-2.08z" />
</g>
<g class="root" id="scroll_left" data-name="scroll-left">
	<path d="M12 0A11.999 11.999 0.001 1 1 3.516 3.515A11.999 11.999 0.001 0 1 12 0ZM6.001 12.023a0.96 0.96 0 0 0 0.283 0.696l3.95 3.938a0.967 0.967 0 0 0 1.368-1.366L9.289 12.976H17.04a0.96 0.96 0 0 0 0-1.92H9.267l2.335-2.335a0.967 0.967 0 1 0-1.368-1.368L6.284 11.291A0.96 0.96 0.001 0 0 6.001 11.975Z" />
</g>
<g class="root" id="scroll_right" data-name="scroll-right">
	<path d="M11.999 0A11.999 11.999 0 1 0 20.484 3.515A11.999 11.999 0 0 0 11.999 0ZM17.999 12.023a0.96 0.96 0 0 1-0.283 0.696l-3.95 3.938a0.967 0.967 0 0 1-1.368-1.366l2.313-2.316H6.96a0.96 0.96 0 0 1 0-1.92H14.733l-2.335-2.335a0.967 0.967 0 0 1 1.368-1.368l3.95 3.938A0.96 0.96 0 0 1 17.999 11.975Z" />
</g>
<g class="root" id="search" data-name="search">
	<path d="M2.771 8.945a6.153 6.153 0 1 1 1.802 4.376A5.954 5.954-858.836 0 1 2.771 8.945Zm13.317 6.177l-0.384-0.384a8.546 8.546 0 0 0 2.124-5.792a8.69 8.69 0 0 0-2.574-6.338a8.524 8.524 0 0 0-6.306-2.606a8.9 8.9 0 0 0-8.947 8.945a8.521 8.521 0 0 0 2.607 6.306a8.681 8.681 0 0 0 6.338 2.574a8.546 8.546 0 0 0 5.792-2.123l0.384 0.384v1.094l6.818 6.818l2.06-2.06l-6.818-6.818Z" />
</g>
<g class="root" id="star" data-name="star">
	<polygon points="12 18.1 19.4 23.5 16.6 14.7 24 9.5 15 9.5 12 0.5 9 9.5 0 9.5 7.4 14.7 4.6 23.5" xmlns="http://www.w3.org/2000/svg" />
</g>
<g class="root" id="team_first" data-name="team_first">
	<path d="M20.536 12.811h-1.856c0.189 0.518 0.292 1.077 0.292 1.66v7.015c0 0.243-0.042 0.476-0.119 0.693h3.068c1.146 0 2.079-0.932 2.079-2.079v-3.824c0-1.91-1.554-3.464-3.464-3.464zM5.028 14.471c0-0.583 0.104-1.142 0.292-1.66H3.464c-1.91 0-3.464 1.554-3.464 3.464v3.824c0 1.146 0.932 2.079 2.079 2.079h3.068a2.069 2.069 0 0 1-0.119-0.693v-7.015zM14.122 11.006h-4.244c-1.91 0-3.464 1.554-3.464 3.464v7.015c0 0.382 0.31 0.693 0.693 0.693h9.787c0.382 0 0.693-0.31 0.693-0.693v-7.015c0-1.91-1.554-3.464-3.464-3.464zM12 1.821c-2.297 0-4.166 1.869-4.166 4.166 0 1.558 0.86 2.919 2.13 3.634 0.602 0.339 1.297 0.532 2.036 0.532s1.434-0.194 2.036-0.532c1.27-0.715 2.13-2.076 2.13-3.634 0-2.297-1.869-4.166-4.166-4.166zM4.684 5.704c-1.718 0-3.116 1.398-3.116 3.116 0 1.718 1.398 3.116 3.116 3.116a3.098 3.098 0 0 0 1.228-0.253c0.652-0.28 1.19-0.778 1.522-1.4a3.096 3.096 0 0 0 0.366-1.464c0-1.718-1.398-3.116-3.116-3.116zM19.316 5.704c-1.718 0-3.116 1.398-3.116 3.116a3.096 3.096 0 0 0 0.366 1.464c0.332 0.622 0.87 1.119 1.522 1.4a3.098 3.098 0 0 0 1.228 0.253c1.718 0 3.116-1.398 3.116-3.116 0-1.718-1.398-3.116-3.116-3.116z" />
</g>
</svg>
